<?xml version="1.0" encoding="utf-8"?>
<!-- Generator: Adobe Illustrator 25.2.1, SVG Export Plug-In . SVG Version: 6.00 Build 0)  -->
<svg version="1.1" id="Layer_1" xmlns="http://www.w3.org/2000/svg" xmlns:xlink="http://www.w3.org/1999/xlink" x="0px" y="0px"
	 viewBox="0 0 334 334" style="enable-background:new 0 0 334 334;" xml:space="preserve">
<style type="text/css">
	.st0{fill:#2394BC;}
	.st1{fill:#FFFFFF;stroke:#2394BC;stroke-miterlimit:10;}
	.st2{fill:none;stroke:#2394BC;stroke-miterlimit:10;}
</style>
<g>
	<path class="st0" d="M260.19,223.26H73.81c-7.35,0-13.31,5.96-13.31,13.31v6.66c0,7.35,5.96,13.31,13.31,13.31h186.38
		c7.35,0,13.31-5.96,13.31-13.31v-6.66C273.5,229.22,267.54,223.26,260.19,223.26z M227.47,116.76h-27.19V56.85
		c0-7.35-5.96-13.31-13.31-13.31h-39.94c-7.35,0-13.31,5.96-13.31,13.31v59.91h-27.2c-11.34,0-15.99,7.83-10.32,17.38l60.48,61.99
		c7.9,7.91,12.41,8.21,20.64,0l60.47-61.99C243.47,124.58,238.82,116.76,227.47,116.76z"/>
</g>
<path class="st1" d="M167,0.5C75.05,0.5,0.5,75.05,0.5,167c0,91.96,74.55,166.5,166.5,166.5c91.96,0,166.5-74.54,166.5-166.5
	C333.5,75.05,258.96,0.5,167,0.5z M106.52,116.76h27.2V56.85c0-7.35,5.96-13.31,13.31-13.31h39.94c7.35,0,13.31,5.96,13.31,13.31
	v59.91h27.19c11.35,0,16,7.82,10.32,17.38l-60.47,61.99c-8.23,8.21-12.74,7.91-20.64,0L96.2,134.14
	C90.53,124.59,95.18,116.76,106.52,116.76z M273.5,243.23c0,7.35-5.96,13.31-13.31,13.31H73.81c-7.35,0-13.31-5.96-13.31-13.31
	v-6.66c0-7.35,5.96-13.31,13.31-13.31h186.38c7.35,0,13.31,5.96,13.31,13.31V243.23z"/>
<path class="st2" d="M96.2,134.14c-5.67-9.55-1.02-17.38,10.32-17.38h27.2V56.85c0-7.35,5.96-13.31,13.31-13.31h39.94
	c7.35,0,13.31,5.96,13.31,13.31v59.91h27.19c11.35,0,16,7.82,10.32,17.38l-60.47,61.99c-8.23,8.21-12.74,7.91-20.64,0L96.2,134.14z"
	/>
<path class="st2" d="M273.5,236.57v6.66c0,7.35-5.96,13.31-13.31,13.31H73.81c-7.35,0-13.31-5.96-13.31-13.31v-6.66
	c0-7.35,5.96-13.31,13.31-13.31h186.38C267.54,223.26,273.5,229.22,273.5,236.57z"/>
</svg>
